# xmcd
#
# Track frame offsets: 
#        150
#        18647
#        34616
#        49534
#        69389
#        88031
#        104446
#        119768
#        136722
#        157467
#        175195
#        190902
#
# Disc length: 2827 seconds
#
# Revision: 0
# Processed by: cddbd v1.5.2PL0 Copyright (c) Steve Scherf et al.
# Submitted via: ExactAudioCopy v0.99pb5
#
DISCID=a50b090c
DTITLE=Bryn Haworth - One Way Ticket
DYEAR=2010
DGENRE=Christian Rock
TTITLE0=One Way Ticket
TTITLE1=Strange Things Happening Every Day
TTITLE2=Sunflowers
TTITLE3=Let's Go Out Tonight
TTITLE4=Hard Times
TTITLE5=Nobody's Fault But Mine
TTITLE6=Up On The Downs
TTITLE7=Inside Out
TTITLE8=God Is My Strength
TTITLE9=Trust In Me
TTITLE10=Best Worst Thing
TTITLE11=Once In Royal David's City
EXTD=
EXTT0=
EXTT1=
EXTT2=
EXTT3=
EXTT4=
EXTT5=
EXTT6=
EXTT7=
EXTT8=
EXTT9=
EXTT10=
EXTT11=
PLAYORDER=
